<svg xmlns="http://www.w3.org/2000/svg" version="1.1" id="Layer_1" x="0" y="0" width="352" height="244" viewBox="0 0 352 244" enable-background="new 0 0 352 244" xml:space="preserve"><g display="none"><path display="inline" fill="#FFFFFF" stroke="#1E1E1C" stroke-width="4" stroke-miterlimit="10" d="M8.84 51.56C8.84 48.65 9.47-22.51 9.47-24.86c-0.01-2.35 301.98-2.44 301.98 0.45 0.01 2.89-0.59 74.21-0.58 76.8 0.01 2.59-140.51 33.72-151.61 33.71C148.16 86.08 8.85 54.48 8.84 51.56z"/></g><rect x="14.63" y="142.13" fill="#E6E4E0" width="326.37" height="44.5"/><line display="none" fill="none" stroke="#1E1E1C" stroke-miterlimit="10" x1="124" y1="-102.67" x2="260.33" y2="-102.67"/><line display="none" fill="none" stroke="#1E1E1C" stroke-miterlimit="10" x1="-12.33" y1="154" x2="124" y2="154"/><line display="none" fill="none" stroke="#1E1E1C" stroke-miterlimit="10" x1="-12.33" y1="-85.67" x2="-12.33" y2="-31.96"/><line display="none" fill="none" stroke="#1E1E1C" stroke-miterlimit="10" x1="260.33" y1="81.41" x2="260.33" y2="135.12"/><rect x="8.84" y="4" fill="none" width="302.03" height="34.5"/><text transform="matrix(1 0 0 1 11.7041 36.8984)" display="none" fill="#1E1E1C" font-family="'Cassannet-Bold'" font-size="70">JobTrackr</text><rect x="9.53" y="56.83" fill="none" width="301.86" height="17.17"/><text transform="matrix(1 0 0 1 116.1265 66.7031)" display="none" fill="#1E1E1C" font-family="'Cassannet-Bold'" font-size="21">est. 02/16</text><rect x="387.74" y="321.16" display="none" fill="#1E1E1C" width="71.59" height="145.05"/><rect x="353.83" y="355.23" display="none" fill="#1E1E1C" width="60.97" height="145.92"/><g display="none"><path display="inline" fill="#FFFFFF" d="M376.47 462.42c0 5.57 2.78 8 6.26 8s6.26-2.78 6.26-6.26l-0.07-97.98h17.4l0.07 97.86c0 13.22-10.56 23.66-23.66 23.66s-23.43-8.81-23.43-25.29H376.47z"/></g><g display="none"><path display="inline" fill="#FFFFFF" d="M416.79 349.62h-18.44v-16.94h54.29v16.94h-18.44v104.59h-17.4V349.62z"/></g><g display="none"><path display="inline" fill="#FFFFFF" d="M133.35 484.9c-0.1 1.12-0.2 1.72-0.19 2.32 0.01 0.71 0.06 1.42 0.19 2.11 1.13 6 5.11 10.02 9.66 13.54 6.86 5.31 14.66 8.88 22.74 11.91 1.49 0.56 2.99 1.1 4.68 1.72 -5.75 7.22-11.25 14.23-16.87 21.14 -1.58 1.94-3.37 3.75-5.29 5.36 -5.92 4.96-11.93 9.82-17.96 14.66 -1.11 0.9-1.45 1.75-1.24 3.2 0.82 5.61 1.46 11.26 2.17 16.89 0.6 4.67 1.22 9.34 1.83 13.99 5.3 0 10.36 0 15.6 0 -1.63-4.42-4.78-6.51-9.51-6.97 0-6.05 0.07-11.88-0.05-17.71 -0.03-1.61 0.44-2.37 1.93-2.95 7.2-2.78 14.38-5.61 21.51-8.56 1.55-0.64 3.03-1.66 4.24-2.82 1.79-1.72 3.31-3.72 4.95-5.59 0.23 0.2 0.46 0.4 0.69 0.61 -0.05 0.62-0.05 1.24-0.16 1.85 -1 5.5-2.08 10.99-2.98 16.51 -0.17 1.03 0.02 2.44 0.62 3.23 5.46 7.24 11.04 14.39 16.63 21.54 0.39 0.49 1.08 1.05 1.65 1.06 5.25 0.08 10.5 0.05 15.85 0.05 -1.7-3.95-5.6-6.48-10.58-7.09 -0.72-0.09-1.71-0.26-2.05-0.76 -3.01-4.4-5.89-8.89-8.1-12.26 8.49-8.98 16.6-17.6 24.79-26.13 0.45-0.47 1.58-0.5 2.36-0.42 5.49 0.5 10.97 1.17 16.47 1.59 1.42 0.11 2.06 0.6 2.58 1.83 2.87 6.74 5.8 13.45 8.75 20.15 0.44 0.99 0.96 2.02 1.68 2.8 5.83 6.32 11.7 12.6 17.59 18.86 0.45 0.48 1.13 1.08 1.7 1.09 6.19 0.08 12.39 0.05 18.71 0.05 -0.45-2.52-1.88-4.4-4.07-5.18 -2.47-0.89-5.15-1.41-7.77-1.57 -1.76-0.11-2.88-0.57-3.95-1.92 -2.89-3.65-5.73-7.36-8.94-10.71 -2.39-2.49-2.5-5.2-2.1-8.37 1.46-0.12 2.87-0.25 4.27-0.34 8.5-0.58 17-1.13 25.49-1.74 3.15-0.23 5.49-4.61 4.03-7.43 -3.46-6.64-6.94-13.26-10.4-19.9 -0.39-0.74-0.73-1.49-1.29-2.64 6.08-1.57 11.82-3.04 17.76-4.58 -3.23-6.71-5.77-14.19-6.39-22.42 -0.88 0-1.65-0.02-2.42 0 -26.18 0.72-52.35 1.49-78.53 2.13 -9.77 0.24-19.61 0.92-29.3 0.07C157.92 505.64 143.41 499.77 133.35 484.9zM287.48 505.19c1.07 7.26 2.99 14.26 6.54 20.77 0.73 1.34 1.6 1.91 3.19 1.77 5.03-0.46 10.04-0.53 14.91 1.23 1.32 0.48 2.76 0.62 4.16 0.82 5.66 0.83 11.31 1.14 16.78-0.99 5.43-2.11 8.88-7.25 8.57-12.25 -3.72-1.34-7.42-2.45-10.92-4 -3.46-1.53-6.22-3.94-7.43-7.79 -0.18-0.57-1.23-1.13-1.94-1.22 -4.6-0.6-9.25-0.89-13.83-1.65 -3.84-0.63-7.45-0.33-11.12 0.92C293.58 503.75 290.65 504.35 287.48 505.19z"/><path display="inline" fill-rule="evenodd" clip-rule="evenodd" d="M133.35 484.9c10.06 14.87 24.57 20.74 40.99 22.17 9.69 0.84 19.53 0.17 29.3-0.07 26.18-0.64 52.36-1.41 78.53-2.13 0.77-0.02 1.54 0 2.42 0 0.62 8.23 3.15 15.71 6.39 22.42 -5.94 1.53-11.68 3.01-17.76 4.58 0.56 1.15 0.9 1.91 1.29 2.64 3.46 6.63 6.94 13.26 10.4 19.9 1.47 2.81-0.88 7.2-4.03 7.43 -8.49 0.62-16.99 1.16-25.49 1.74 -1.41 0.1-2.81 0.23-4.27 0.34 -0.39 3.17-0.28 5.87 2.11 8.37 3.21 3.35 6.05 7.07 8.94 10.71 1.07 1.35 2.19 1.82 3.95 1.92 2.62 0.16 5.3 0.68 7.77 1.57 2.19 0.79 3.62 2.67 4.07 5.18 -6.33 0-12.52 0.03-18.71-0.05 -0.58-0.01-1.25-0.6-1.7-1.09 -5.89-6.26-11.77-12.54-17.59-18.86 -0.72-0.79-1.25-1.81-1.68-2.8 -2.95-6.7-5.88-13.42-8.75-20.15 -0.52-1.23-1.16-1.72-2.58-1.83 -5.5-0.42-10.97-1.09-16.47-1.59 -0.78-0.07-1.91-0.05-2.36 0.42 -8.19 8.54-16.3 17.15-24.79 26.13 2.21 3.37 5.09 7.86 8.1 12.26 0.34 0.5 1.33 0.67 2.05 0.76 4.98 0.61 8.88 3.14 10.58 7.09 -5.35 0-10.6 0.03-15.85-0.05 -0.56-0.01-1.26-0.56-1.65-1.06 -5.58-7.14-11.16-14.3-16.62-21.53 -0.6-0.8-0.79-2.2-0.62-3.23 0.9-5.52 1.98-11.01 2.98-16.51 0.11-0.6 0.11-1.23 0.16-1.85 -0.23-0.2-0.46-0.41-0.69-0.61 -1.64 1.88-3.16 3.88-4.95 5.6 -1.21 1.16-2.69 2.18-4.24 2.82 -7.13 2.95-14.31 5.78-21.51 8.56 -1.49 0.57-1.97 1.33-1.93 2.95 0.12 5.83 0.05 11.66 0.05 17.71 4.73 0.47 7.89 2.56 9.51 6.98 -5.24 0-10.3 0-15.6 0 -0.61-4.65-1.23-9.32-1.82-13.99 -0.72-5.63-1.35-11.27-2.17-16.89 -0.21-1.46 0.12-2.31 1.24-3.2 6.03-4.84 12.04-9.7 17.96-14.66 1.92-1.61 3.71-3.42 5.29-5.36 5.62-6.91 11.12-13.91 16.87-21.13 -1.69-0.62-3.19-1.16-4.68-1.72 -8.07-3.03-15.87-6.6-22.74-11.91 -4.55-3.52-8.53-7.55-9.66-13.54 -0.13-0.69-0.18-1.41-0.19-2.11C133.15 486.61 133.25 486.02 133.35 484.9zM250.8 555.51c7.34 0 14.35 0 21.35 0 0.03-0.15 0.06-0.3 0.09-0.45 -7.11-3.49-14.23-6.99-21.44-10.53C250.8 548.39 250.8 551.9 250.8 555.51z"/><path display="inline" fill-rule="evenodd" clip-rule="evenodd" d="M287.48 505.19c3.17-0.84 6.1-1.44 8.9-2.4 3.66-1.25 7.28-1.55 11.12-0.92 4.58 0.76 9.23 1.05 13.83 1.65 0.71 0.09 1.76 0.65 1.94 1.22 1.21 3.86 3.97 6.26 7.43 7.79 3.5 1.55 7.2 2.66 10.92 4.01 0.31 5-3.14 10.14-8.57 12.25 -5.47 2.13-11.12 1.82-16.78 0.99 -1.4-0.21-2.85-0.35-4.16-0.82 -4.87-1.76-9.88-1.69-14.91-1.23 -1.58 0.15-2.46-0.43-3.19-1.77C290.47 519.45 288.56 512.45 287.48 505.19z"/><path display="inline" fill-rule="evenodd" clip-rule="evenodd" fill="#FFFFFF" d="M250.8 555.51c0-3.61 0-7.12 0-10.98 7.21 3.54 14.33 7.04 21.44 10.53 -0.03 0.15-0.06 0.3-0.09 0.45C265.15 555.51 258.15 555.51 250.8 555.51z"/></g><g display="none"><path display="inline" fill="#FFFFFF" d="M251.36 371.59c5.45 1.42 10.98 2.51 16.06 5.1 1.05 0.53 1.49 1.18 1.55 2.42 0.21 4.32-0.94 8.39-1.89 12.52 -1.13 4.91-2.07 9.87-3.16 14.79 -0.15 0.69-0.58 1.38-1.06 1.92 -4.75 5.26-9.64 10.41-14.31 15.75 -8.73 9.99-13.88 21.48-14.29 34.93 -0.05 1.8 0.69 2.56 2.16 3.01 3.44 1.03 6.88 0.9 10.33 0.02 0.91-0.23 1.17-0.72 1.02-1.65 -1.54-9.4 1.48-17.43 7.56-24.46 6.96-8.05 15.86-13.35 25.5-17.55 0.24-0.1 0.53-0.08 1.17-0.17 0 1.93 0.35 3.79-0.08 5.46 -0.78 3.07-1.78 6.14-3.13 9 -2.57 5.45-2.75 10.83-0.39 16.34 2.11 4.92 4.58 9.59 9.32 12.51 1.7 1.05 3.86 2.05 5.57 0.83 1.77-1.26 2.06-3.68 1.51-5.77 -0.63-2.39-1.6-4.71-2.57-6.99 -1.01-2.4-2.25-4.72-3.26-7.12 -0.29-0.69-0.4-1.66-0.15-2.33 3.07-8.21 6.06-16.45 9.4-24.55 2.7-6.55 6.41-12.51 11.8-17.29 0.89-0.79 1.7-1.07 2.82-0.59 5.96 2.57 11.99 5 17.9 7.68 6.26 2.85 12.56 5.48 19.45 6.39 2.93 0.38 2.93 0.33 3.56 3.23 1.25 5.79 0.4 11.56-0.14 17.35 -0.52 5.61-1.05 11.23-1.15 16.85 -0.07 4.19 1.1 8.19 4.22 11.31 0.48 0.48 1.26 0.86 1.93 0.9 2.61 0.16 5.23 0.22 7.84 0.19 1.26-0.02 2.56-0.18 3.77-0.52 2.5-0.71 3.05-2.15 1.61-4.3 -0.56-0.84-1.45-1.48-2.28-2.09 -0.84-0.61-2-0.9-2.65-1.64 -0.94-1.08-2.2-2.46-2.2-3.71 0-7.9 0.16-15.81 0.56-23.71 0.26-5.17 1.17-10.28 3.69-14.94 1.84-3.41 5.47-4.62 8.98-2.99 1.62 0.75 1.91 1.5 0.93 2.96 -0.77 1.15-1.7 2.2-2.63 3.24 -1.44 1.6-3 3.09-4.4 4.72 -1.33 1.55-2 3.42-1.85 5.48 0.2 2.86 0.94 3.41 3.76 2.95 5.06-0.83 9.29-3.27 12.92-6.78 3.55-3.42 7-6.95 10.48-10.46 2.1-2.12 1.58-7-0.96-8.55 -4.46-2.73-8.96-5.39-13.48-8.02 -0.98-0.57-1.22-1.19-0.97-2.27 1.56-6.76 4.53-12.79 9.23-17.93 5.56-6.08 12.49-10.19 19.86-13.62 0.8-0.37 1.91-0.47 2.77-0.27C418.29 360.23 246.54 370.34 251.36 371.59z"/><path display="inline" fill-rule="evenodd" clip-rule="evenodd" fill="#FFFFFF" d="M391.51 337.21c-11.54 7.55-23.65 13.86-36.99 17.62 -3.79 1.07-7.78 1.75-11.29 3.41 -4.52 2.14-9.13 3.16-13.99 2.89 -8.06-0.44-16.11-1.16-24.16-1.8 -5.81-0.46-11.6-0.65-17.39 0.22 -3.4 0.51-6.13 2.4-8.95 4.14 -2.06 1.27-4.22 2.37-6.7 2.11C267.67 365.35 395.3 334.73 391.51 337.21z"/><path display="inline" fill-rule="evenodd" clip-rule="evenodd" d="M226.24 356.66c11.22 1.14 21.71 5.45 32.71 7.47 4.32 0.79 8.71 1.22 13.09 1.67 2.48 0.26 4.64-0.85 6.7-2.11 2.82-1.73 5.55-3.62 8.95-4.13 5.79-0.87 11.59-0.69 17.4-0.22 8.05 0.65 16.1 1.36 24.16 1.8 4.86 0.27 9.47-0.75 13.99-2.89 3.51-1.67 7.5-2.35 11.29-3.41 13.34-3.76 25.45-10.07 36.99-17.62 3.79-2.48 7.57-5 12.07-6.1 0.84-0.2 1.67-0.43 2.5-0.65 1.86 0 3.73 0 5.59 0 2.13 0.85 4.48 1.37 6.33 2.63 2.32 1.58 4.2 3.81 6.35 5.66 0.79 0.68 1.75 1.36 2.74 1.58 5.36 1.17 10.87 1.83 15.67 4.8 0 0.58 0 1.16 0 1.75 -0.1 0.14-0.27 0.26-0.29 0.41 -1.02 7-6.63 11.73-14.57 12.84 -4.87 0.68-9.6 0.1-14.34-1.01 -0.86-0.2-1.97-0.1-2.77 0.27 -7.37 3.43-14.3 7.54-19.86 13.62 -4.7 5.14-7.67 11.16-9.23 17.93 -0.25 1.07-0.01 1.7 0.97 2.27 4.52 2.63 9.02 5.3 13.49 8.02 2.54 1.55 3.06 6.43 0.96 8.55 -3.47 3.51-6.93 7.03-10.48 10.46 -3.63 3.5-7.86 5.95-12.92 6.78 -2.82 0.46-3.56-0.09-3.76-2.95 -0.15-2.06 0.53-3.93 1.85-5.48 1.4-1.63 2.96-3.12 4.4-4.72 0.93-1.03 1.86-2.09 2.64-3.24 0.98-1.46 0.69-2.2-0.93-2.96 -3.5-1.63-7.13-0.42-8.98 2.99 -2.52 4.66-3.43 9.77-3.69 14.94 -0.4 7.89-0.56 15.81-0.56 23.71 0 1.25 1.25 2.63 2.2 3.71 0.65 0.75 1.81 1.03 2.65 1.64 0.83 0.61 1.72 1.25 2.28 2.09 1.44 2.15 0.9 3.59-1.61 4.3 -1.21 0.35-2.51 0.51-3.77 0.52 -2.61 0.03-5.23-0.03-7.84-0.19 -0.66-0.04-1.45-0.43-1.93-0.9 -3.11-3.11-4.28-7.12-4.21-11.3 0.09-5.62 0.63-11.24 1.15-16.85 0.53-5.79 1.39-11.55 0.14-17.35 -0.62-2.89-0.63-2.84-3.56-3.23 -6.88-0.9-13.19-3.54-19.44-6.38 -5.91-2.69-11.94-5.11-17.9-7.68 -1.12-0.48-1.93-0.2-2.82 0.59 -5.39 4.78-9.1 10.75-11.8 17.29 -3.34 8.1-6.33 16.34-9.4 24.55 -0.25 0.68-0.14 1.65 0.15 2.34 1.01 2.4 2.25 4.72 3.26 7.12 0.96 2.29 1.94 4.6 2.57 6.99 0.55 2.09 0.26 4.51-1.5 5.77 -1.71 1.22-3.87 0.21-5.57-0.83 -4.74-2.92-7.22-7.59-9.32-12.51 -2.36-5.5-2.18-10.88 0.39-16.33 1.35-2.86 2.34-5.93 3.13-9 0.43-1.66 0.08-3.53 0.08-5.46 -0.64 0.09-0.93 0.07-1.17 0.18 -9.64 4.19-18.53 9.49-25.49 17.55 -6.08 7.03-9.1 15.06-7.56 24.46 0.15 0.93-0.11 1.42-1.02 1.65 -3.45 0.88-6.89 1.02-10.33-0.02 -1.47-0.44-2.21-1.2-2.16-3.01 0.41-13.45 5.56-24.93 14.29-34.93 4.67-5.34 9.56-10.49 14.31-15.75 0.48-0.53 0.91-1.23 1.06-1.91 1.09-4.92 2.02-9.88 3.16-14.79 0.96-4.13 2.1-8.21 1.89-12.52 -0.06-1.23-0.5-1.88-1.54-2.41 -5.07-2.59-10.61-3.69-16.06-5.1 -4.82-1.25-9.66-2.51-14.34-4.21 -4.74-1.72-8.44-4.86-10.41-9.71 -0.05-0.13-0.24-0.21-0.37-0.32C226.24 357.12 226.24 356.89 226.24 356.66zM440.9 345.75c-3.56-0.7-6.99-1.63-10.49-2.01 -3.96-0.44-7.64-1.01-9.63-5.04 -0.12-0.25-0.38-0.44-0.58-0.65 -3.85-3.97-8.45-6.43-14.04-5.42 -3.43 0.62-6.94 1.75-9.95 3.47 -6.15 3.5-11.99 7.56-17.97 11.37 -5.75 3.66-11.58 7.22-18.43 8.4 -5.55 0.96-10.8 2.65-15.78 5.29 -1.82 0.97-3.85 1.7-5.87 2.1 -5.88 1.17-11.81 0.54-17.73 0.23 -8.59-0.45-17.17-0.92-25.77-1.24 -4.05-0.15-7.98 0.63-11.63 2.5 -2.43 1.24-4.87 2.48-7.25 3.8 -1.32 0.73-2.57 1.18-4.12 0.71 -1.49-0.46-3.08-0.59-4.6-0.98 -9.39-2.42-18.76-4.89-28.15-7.29 -2.47-0.63-4.99-1.08-7.49-1.62 -0.08 0.2-0.17 0.4-0.25 0.6 1.01 0.71 1.98 1.51 3.05 2.1 6.2 3.4 12.84 5.64 19.6 7.64 5.22 1.55 10.41 3.24 15.51 5.15 1.57 0.59 2.73 1.08 4.01-0.7 -0.03 0.57-0.01 0.8-0.06 1.02 -1.98 10.2-4.05 20.39-5.89 30.61 -0.46 2.54-1.48 4.49-3.22 6.33 -4.6 4.86-9.2 9.72-13.55 14.8 -7.52 8.77-12.25 18.85-13.45 30.46 -0.11 1.03-0.11 2.03 1 2.27 2.01 0.44 4.06 0.72 6.1 0.9 1.31 0.12 1.64-0.77 1.48-1.96 -0.32-2.42-0.64-4.84-0.84-7.27 -0.07-0.88 0.01-1.9 0.41-2.65 2.48-4.6 5.07-9.15 7.64-13.71 0.34-0.6 0.74-1.2 1.25-1.65 4.11-3.61 8.24-7.2 12.37-10.77 3.85-3.32 7.89-6.28 12.87-7.79 1.55-0.47 3.03-1.48 4.31-2.53 4.66-3.85 7.8-8.88 10.61-14.14 3.39-6.35 6.69-12.76 10.17-19.06 1.12-2.02 2.69-3.79 4.05-5.67 0.2 0.12 0.41 0.24 0.61 0.35 -4.11 9.1-8.22 18.2-12.33 27.3 0.75-0.37 1.17-0.91 1.6-1.44 3.65-4.56 8.26-6.61 14.13-5.54 5.24 0.95 9.77 3.63 14.51 5.82 5.64 2.6 11.28 5.26 17.1 7.37 7.37 2.68 14.65-0.23 22.12-1.29 -0.47-0.68-1.02-1.3-1.7-1.63 -1.66-0.82-3.34-1.62-5.09-2.22 -2.41-0.82-4.93-1.34-7.34-2.19 -3.01-1.05-5.09-3.05-5.4-6.4 -0.46-4.83 4.62-12.04 9.48-13.41 -0.31 0.45-0.56 0.83-0.84 1.2 -2.64 3.45-4.83 7.1-5.52 11.5 -0.18 1.13-0.02 1.89 1.1 2.38 1.75 0.77 3.41 1.81 5.21 2.41 6.28 2.08 12.63 3.96 18.91 6.02 3.12 1.03 6.17 2.3 9.19 3.44 -0.57 3.2-1.98 5.3-4.88 8.19 -1.72 1.71-3.27 3.61-4.72 5.56 -0.63 0.85-0.81 2.04-1.28 3.28 5.16-0.4 8.99-2.49 11.79-6.28 2.63-3.56 5.27-7.01 9.12-9.46 2.5-1.59 2.34-4.38-0.23-5.99 -2.54-1.59-5.27-2.92-8.03-4.12 -3.77-1.65-7.7-2.94-11.46-4.62 -2.84-1.27-5.24-3.2-6.81-5.98 2.81-3.3 3.26-3.61 4.65-3.19 -0.35 0.21-0.63 0.38-0.9 0.56 -2.08 1.36-2.13 2.56 0.07 3.67 2.15 1.09 4.44 1.88 6.85 2.87 0.88-2.41 1.64-4.54 2.43-6.65 1.54-4.09 3.08-8.23 6.05-11.52 5.22-5.8 11.35-10.49 18.36-13.97 2.49-1.24 5.06-1.65 7.92-1.4 4.74 0.42 9.53 0.61 14.28 0.46C435.25 358.16 440.13 353.5 440.9 345.75zM301.02 402.28c-0.09-0.06-0.18-0.11-0.27-0.17 -0.24 0.21-0.52 0.4-0.72 0.64 -3.83 4.47-8.34 8.06-13.54 10.82 -0.48 0.26-0.83 1.15-0.89 1.77 -0.27 2.94-0.03 5.99-0.71 8.82 -1.16 4.83-2.92 9.52-4.33 14.3 -0.48 1.65-1.11 3.46-0.87 5.08 0.73 4.84 2.66 9.26 6.08 12.87 1.65 1.74 3.59 3.06 6.55 3.68 -0.38-2.11-0.46-3.98-1.09-5.66 -0.72-1.94-1.82-3.76-2.95-5.51 -2.52-3.9-3.42-8.03-1.71-12.43 3.24-8.32 6.56-16.61 9.98-24.87C297.88 408.45 299.53 405.4 301.02 402.28zM356.68 410.97c2.2 7.38 0.58 14.36-0.16 21.39 -0.57 5.36-0.95 10.76-1.07 16.15 -0.07 3.35 1.04 6.54 3.26 9.18 0.37 0.44 0.98 0.9 1.52 0.96 1.79 0.2 3.6 0.33 5.39 0.27 1.05-0.03 2.08-0.48 3.31-0.78 -0.38-0.5-0.43-0.62-0.52-0.68 -0.3-0.17-0.61-0.34-0.94-0.45 -3.61-1.33-5.65-3.95-6.25-7.7 -0.22-1.37-0.4-2.76-0.47-4.15 -0.4-8.26 0.97-16.33 2.57-24.38 0.69-3.46 1.29-6.93 2.03-10.99C362.27 410.2 359.58 410.57 356.68 410.97z"/><path display="inline" fill-rule="evenodd" clip-rule="evenodd" fill="#FFFFFF" d="M442.75 345.13c-4.81-2.97-10.31-3.63-15.67-4.8 -0.98-0.22-1.95-0.9-2.73-1.58 -2.15-1.85-4.02-4.08-6.35-5.66 -1.85-1.26-4.2-1.78-6.33-2.63 10.36 0 20.72 0 31.08 0C442.75 335.35 442.75 340.24 442.75 345.13z"/><path display="inline" fill-rule="evenodd" clip-rule="evenodd" fill="#FFFFFF" d="M440.9 345.75c-0.77 7.75-5.65 12.42-13.38 12.66 -4.75 0.15-9.54-0.04-14.28-0.46 -2.86-0.25-5.43 0.17-7.92 1.4 -7.01 3.48-13.14 8.17-18.36 13.97 -2.96 3.29-4.51 7.42-6.04 11.52 -0.79 2.11-1.55 4.23-2.43 6.65 -2.4-0.99-4.7-1.79-6.84-2.87 -2.2-1.11-2.15-2.31-0.07-3.67 0.27-0.18 0.55-0.34 0.9-0.56 -1.4-0.42-1.84-0.11-4.65 3.19 1.57 2.78 3.98 4.71 6.82 5.98 3.76 1.68 7.69 2.98 11.46 4.63 2.76 1.2 5.49 2.52 8.03 4.12 2.57 1.61 2.73 4.4 0.23 5.99 -3.85 2.45-6.49 5.9-9.12 9.46 -2.8 3.79-6.63 5.88-11.79 6.28 0.47-1.25 0.65-2.43 1.28-3.28 1.45-1.95 3-3.85 4.72-5.56 2.9-2.89 4.31-4.99 4.88-8.19 -3.02-1.14-6.06-2.41-9.18-3.44 -6.28-2.07-12.63-3.95-18.91-6.02 -1.8-0.6-3.46-1.64-5.21-2.41 -1.12-0.49-1.28-1.25-1.1-2.38 0.69-4.4 2.87-8.05 5.52-11.5 0.28-0.36 0.53-0.75 0.84-1.2 -4.86 1.37-9.94 8.57-9.48 13.41 0.32 3.35 2.4 5.35 5.41 6.4 2.41 0.84 4.93 1.36 7.34 2.19 1.75 0.6 3.43 1.4 5.09 2.22 0.68 0.34 1.23 0.96 1.7 1.63 -7.48 1.06-14.75 3.97-22.12 1.29 -5.82-2.12-11.46-4.77-17.1-7.37 -4.74-2.19-9.27-4.86-14.51-5.82 -5.87-1.06-10.49 0.98-14.13 5.54 -0.43 0.54-0.85 1.08-1.6 1.44 4.11-9.1 8.22-18.2 12.33-27.3 -0.2-0.12-0.41-0.24-0.61-0.35 -1.36 1.88-2.93 3.65-4.05 5.67 -3.48 6.3-6.77 12.71-10.17 19.06 -2.81 5.26-5.95 10.29-10.61 14.14 -1.27 1.05-2.75 2.07-4.31 2.54 -4.99 1.51-9.03 4.46-12.87 7.79 -4.14 3.58-8.27 7.16-12.37 10.77 -0.51 0.45-0.91 1.05-1.25 1.65 -2.58 4.55-5.16 9.1-7.64 13.71 -0.4 0.75-0.48 1.78-0.41 2.65 0.19 2.43 0.52 4.85 0.84 7.27 0.16 1.19-0.18 2.08-1.48 1.96 -2.05-0.18-4.1-0.46-6.1-0.9 -1.1-0.24-1.1-1.24-1-2.27 1.2-11.61 5.94-21.68 13.45-30.46 4.35-5.08 8.95-9.94 13.55-14.79 1.74-1.84 2.76-3.79 3.22-6.32 1.85-10.22 3.91-20.41 5.89-30.61 0.04-0.22 0.03-0.45 0.06-1.02 -1.28 1.79-2.43 1.29-4.01 0.7 -5.1-1.91-10.29-3.6-15.51-5.15 -6.75-2-13.4-4.24-19.59-7.64 -1.08-0.59-2.04-1.39-3.05-2.1 0.09-0.2 0.17-0.4 0.25-0.6 2.5 0.53 5.02 0.98 7.49 1.62 9.39 2.4 18.76 4.88 28.15 7.29 1.52 0.39 3.1 0.52 4.6 0.98 1.55 0.47 2.8 0.02 4.12-0.71 2.39-1.32 4.82-2.56 7.26-3.8 3.65-1.86 7.58-2.65 11.63-2.5 8.59 0.33 17.18 0.79 25.77 1.24 5.92 0.31 11.85 0.94 17.73-0.23 2.02-0.4 4.05-1.14 5.87-2.1 4.98-2.64 10.23-4.33 15.78-5.29 6.86-1.19 12.68-4.75 18.43-8.4 5.98-3.8 11.82-7.86 17.97-11.36 3.01-1.71 6.52-2.85 9.95-3.46 5.59-1.01 10.19 1.45 14.04 5.42 0.2 0.21 0.46 0.4 0.58 0.65 1.99 4.04 5.68 4.61 9.64 5.04C433.91 344.12 437.35 345.04 440.9 345.75zM408.72 338.34c-1.24 3.72-2.29 7.47-3.76 11.05 -0.82 2-2.13 3.88-3.57 5.5 -1.8 2.03-4.2 2.11-6.46 0.58 -0.81-0.55-1.65-1.18-2.18-1.97 -0.41-0.61-0.69-1.62-0.48-2.28 0.89-2.76 1.93-5.47 3.04-8.15 0.38-0.92 1.03-1.78 1.74-2.48 1.17-1.17 2.49-2.19 3.74-3.27 -0.6-0.08-1 0.1-1.36 0.35 -3.63 2.43-5.85 5.88-7.3 9.93 -2.19 6.1-1.67 7.47 4.44 9.76 4.64 1.74 4.12 1.48 6.91-1.76C407.75 350.64 408.69 344.6 408.72 338.34z"/><path display="inline" fill-rule="evenodd" clip-rule="evenodd" fill="#FFFFFF" d="M301.02 402.28c-1.5 3.12-3.15 6.17-4.46 9.36 -3.41 8.25-6.73 16.54-9.97 24.87 -1.71 4.39-0.81 8.52 1.71 12.43 1.13 1.75 2.23 3.57 2.95 5.51 0.63 1.67 0.71 3.55 1.09 5.66 -2.96-0.62-4.9-1.94-6.55-3.68 -3.42-3.61-5.35-8.03-6.08-12.87 -0.24-1.62 0.39-3.43 0.87-5.08 1.4-4.78 3.17-9.47 4.33-14.3 0.68-2.83 0.44-5.88 0.71-8.82 0.06-0.63 0.4-1.52 0.89-1.77 5.19-2.77 9.71-6.36 13.54-10.82 0.21-0.24 0.48-0.43 0.72-0.64C300.84 402.17 300.94 402.23 301.02 402.28z"/><path display="inline" fill-rule="evenodd" clip-rule="evenodd" fill="#FFFFFF" d="M356.68 410.97c2.9-0.4 5.59-0.77 8.67-1.19 -0.75 4.06-1.35 7.53-2.03 10.99 -1.6 8.05-2.97 16.13-2.57 24.38 0.07 1.39 0.25 2.78 0.47 4.15 0.61 3.75 2.64 6.37 6.25 7.7 0.32 0.12 0.63 0.29 0.94 0.45 0.09 0.05 0.14 0.18 0.52 0.68 -1.23 0.31-2.26 0.75-3.31 0.78 -1.79 0.06-3.6-0.07-5.39-0.27 -0.54-0.06-1.15-0.51-1.52-0.96 -2.22-2.65-3.33-5.83-3.26-9.18 0.11-5.39 0.5-10.78 1.07-16.15C357.26 425.33 358.88 418.35 356.68 410.97z"/><path display="inline" fill-rule="evenodd" clip-rule="evenodd" d="M408.72 338.34c-0.03 6.26-0.97 12.31-5.24 17.26 -2.8 3.24-2.27 3.5-6.91 1.76 -6.11-2.29-6.63-3.66-4.44-9.76 1.45-4.05 3.67-7.5 7.3-9.93 0.36-0.24 0.76-0.43 1.36-0.35 -1.25 1.08-2.57 2.1-3.74 3.27 -0.71 0.71-1.36 1.57-1.74 2.48 -1.11 2.68-2.15 5.39-3.04 8.15 -0.21 0.66 0.07 1.67 0.48 2.28 0.54 0.79 1.37 1.42 2.18 1.97 2.26 1.53 4.65 1.45 6.46-0.58 1.44-1.62 2.75-3.5 3.57-5.5C406.43 345.81 407.48 342.06 408.72 338.34z"/></g><g display="none"><path display="inline" fill="#D9544F" d="M203.19-59.44c2.15 0.71 6.54-1.21 7.5-2.08 3.27-2.97 2.13-4.74 6.13-2.56 3.81 2.08 7.63 4.1 11.13 6.71 3.81 2.84 6.48 4.35 7.64-0.46 0.76-3.16-1.18-8.08 1.29-10.95 -0.38 2.33-0.71 4.66-1.16 6.97 -1.4 7.19-2.96 14.38-2.98 21.74 -0.02 8.16 5.41 12.17 13.46 10.41 2.47-0.54 2.03-2.08 1.86-3.73 -0.7-6.96 0.58-13.6 3.83-19.94 -0.54 4.73-1.1 9.47-1.61 14.2 -0.7 6.47 1.34 9.12 7.65 9.34 6.28 0.22 12.57 0.25 18.85 0.1 5.36-0.12 7.32-4.07 4.28-8.61 -1.99-2.97-4.3-5.75-6.62-8.48 -4.64-5.47-9.36-10.83-12.07-17.67 -1.65-4.16-4.9-6.83-8.93-9 -5.56-2.98-9.33-8.3-14.22-12.25 -12.15-9.79-24.34-19.36-39.6-24.08 -4.25-1.32-8.21-3.58-12.31-5.4 -6.15-2.73-12.39-3.14-18.76-0.74 -16.87 6.35-33.76 4.79-49.95-1.66 -9.88-3.93-19.32-4.13-29.37-2.38 -12.09 2.1-23.71 6.36-35.94 7.73 -18.12 2.03-33.95 1.41-51.79-2.66 -2.03-0.46-2.49-3.46-3.2-1.21 -0.81 2.58-1.99 2.97 0 3.85 14.3 6.32 29.41 10.04 44.8 9 8.05-0.55 20.13-2.33 28.05-3.97 2.67-0.55 1.57 0 0.85 3.15 -1.51 6.58-3.06 13.19-1.75 19.98 0.63 3.25-2.06 5.75-4.3 7.95 -7.01 6.85-15.24 12.04-23.48 17.2 -5.61 3.52-7.13 6.57-6.08 13.03 0.1 0.59 0.25 1.17 0.37 1.76 3.03 14.18 6.87 16.76 21.24 14.4 3.39-0.56 3.03-2.33 1.57-4.37 -1.79-2.5-4.82-2.81-7.45-3.82 -3.16-1.21-6.74-1.8-7.06-6.37 -0.34-4.81 1.73-7.92 5.81-10.18 5.19-2.86 10.85-4.18 16.51-5.59 13.44-3.36 26.37-7.87 37.41-16.66 1.77-1.41 3.29-3.01 4.72-4.76 2.31-2.83 4.79-5.52 8.04-7.46 -4.71 5.16-7.56 11.32-10.62 17.44 -3.02 6.05-8.32 10.12-14.17 13.33 -3.5 1.92-3.4 3.94-0.87 6.6 6.18 6.5 12.29 13.07 18.42 19.63 1.41 1.51 3.06 2.33 5.14 2.32 3.44-0.03 6.88 0.02 10.32-0.01 1.18-0.01 2.65 0.14 3.08-1.25 0.47-1.52-0.72-2.51-1.85-3.27 -2.15-1.43-4.63-2.3-7.12-2.61 -8.65-1.07-10.94-8.54-14.7-14.43 -1.27-1.99 0.75-2.41 2.32-2.59 2.96-0.35 5.97-0.48 8.89-1.08 9.59-1.98 14.43-8.94 17.74-17.38 0.97-2.48-0.83-3.29-2.63-3.71 -3.39-0.79-6.83-1.36-10.15-2.36 4.44-0.51 8.25 0.56 12.18 1.59 3.35 0.88 6.95 1.32 9.48 5.3 3.39 5.31 9.29 8.24 15.42 11.59 -1.15 0.08-1.58 0.23-1.93 0.12 -1.82-0.56-1.83-4.15-2.97-4.38 -3.99-0.82-5.93 3.87-7.74 10.5 -1.73 6.36-2.87 12.83-3.82 19.35 -0.46 3.17 0.36 4.82 3.92 4.69 4.78-0.18 14.54-0.47 19.32-0.52 1.16-0.01 2.6 0.09 2.95-1.41 0.32-1.35-0.73-2.21-1.68-2.94 -1.85-1.42-9.1-1.2-11.28-1.66 -3.5-0.75-4.55-2.52-2.5-5.73 3.72-5.81 9.1-9.84 14.65-13.66 2.07-1.43 5.25-3.49 7.44-3.41 6.54 0.22 6.06 3.29 4.53-2.92 -1.89-7.67-3.8-15.34-8.54-23.24 4.32 2.3 5.42 5.59 6.79 8.5 2.82 5.98 4.49 12.36 5.76 18.83 1.19 6.06 3.89 10.45 10.23 12.94 6.9 2.71 13.63 6.34 17.37 13.47 0.2 0.38 0.54 0.88 0.89 0.97 6.04 1.4 17.1 1.02 23.14 0.27 1.81-0.22 1.07-3.33 0.19-4.4 -1.79-2.16-9.21-2.18-11.93-2.7 -11.99-2.29-17.13-12.23-23.13-21.04 -1.49-2.19-0.46-5.25 0.06-7.91 2.03-10.38 4.59-20.71 4.34-31.45C207.24-85.03 204.58-71.82 203.19-59.44z"/><path display="inline" fill-rule="evenodd" clip-rule="evenodd" fill="#1E1E1C" d="M209.45-98.74c2.76 12.45-0.64 24.63-2.03 36.94 2.15 0.71 2.77-1.08 3.74-1.95 3.27-2.97 6.67-3.62 10.66-1.44 3.81 2.08 7.63 4.1 11.13 6.71 3.81 2.84 4.1 2.7 5.26-2.11 0.76-3.16 1.21-6.43 3.68-9.29 -0.38 2.33-0.71 4.66-1.16 6.97 -1.4 7.19-2.96 14.38-2.98 21.74 -0.02 8.15 5.41 12.17 13.46 10.41 2.47-0.54 2.03-2.08 1.86-3.73 -0.7-6.96 0.58-13.6 3.83-19.94 -0.54 4.73-1.1 9.47-1.61 14.2 -0.7 6.47 1.34 9.12 7.65 9.34 6.28 0.22 12.57 0.25 18.85 0.1 5.36-0.12 7.32-4.07 4.28-8.61 -1.99-2.97-4.3-5.75-6.62-8.48 -4.64-5.47-9.36-10.83-12.07-17.67 -1.65-4.16-4.9-6.84-8.93-9 -5.56-2.98-9.33-8.3-14.22-12.25 -12.15-9.79-24.34-19.36-39.6-24.08 -4.25-1.32-8.21-3.58-12.31-5.4 -6.15-2.73-12.39-3.14-18.76-0.74 -16.87 6.35-33.76 4.79-49.95-1.66 -9.88-3.93-19.32-4.13-29.37-2.38 -12.09 2.1-23.71 6.36-35.94 7.73 -18.12 2.03-36.11 1.41-53.94-2.66 -2.03-0.46-5.34-2.33-6.05-0.08 -0.81 2.58 3.01 3.06 5 3.94 14.3 6.32 29.41 7.69 44.8 6.65 8.05-0.55 16.09-1.3 24.01-2.94 2.67-0.55 4.04 0.11 3.31 3.26 -1.51 6.58-2.53 13.19-1.22 19.98 0.63 3.25-1.02 5.75-3.26 7.95 -7.01 6.85-15.24 12.04-23.48 17.2 -5.61 3.52-7.13 6.57-6.08 13.03 0.1 0.59 0.25 1.17 0.37 1.76 3.03 14.18 6.87 16.76 21.24 14.4 3.39-0.56 3.03-2.33 1.57-4.37 -1.79-2.5-4.82-2.81-7.45-3.82 -3.16-1.21-6.74-1.8-7.06-6.37 -0.34-4.81 1.73-7.92 5.81-10.18 5.19-2.86 10.85-4.18 16.51-5.59 13.44-3.36 26.37-7.87 37.41-16.66 1.77-1.41 3.29-3.01 4.72-4.76 2.31-2.83 4.79-5.52 8.04-7.46 -4.71 5.16-7.56 11.32-10.62 17.44 -3.02 6.05-8.32 10.12-14.17 13.33 -3.5 1.92-3.4 3.94-0.87 6.6 6.18 6.5 12.29 13.07 18.42 19.63 1.41 1.51 3.06 2.33 5.14 2.32 3.44-0.03 6.88 0.02 10.32-0.01 1.18-0.01 2.65 0.14 3.08-1.25 0.47-1.52-0.72-2.51-1.85-3.27 -2.15-1.43-4.63-2.3-7.12-2.61 -8.65-1.07-10.94-8.54-14.7-14.43 -1.27-1.99 0.75-2.41 2.32-2.59 2.96-0.35 5.97-0.48 8.89-1.08 9.59-1.98 14.43-8.94 17.74-17.38 0.97-2.48-0.83-3.28-2.63-3.71 -3.39-0.79-6.83-1.36-10.15-2.36 8.23-0.95 16.15-1.76 21.67 6.89 3.39 5.31 9.29 8.23 15.42 11.59 -1.15 0.08-1.58 0.23-1.93 0.12 -8.18-2.5-8.39-2.4-10.71 6.12 -1.73 6.36-2.87 12.83-3.82 19.35 -0.46 3.17 0.36 4.82 3.92 4.69 4.78-0.18 9.57-0.03 14.36-0.08 1.16-0.01 2.6 0.09 2.95-1.41 0.32-1.35-0.73-2.21-1.68-2.94 -1.85-1.42-4.13-1.64-6.32-2.1 -3.5-0.75-4.55-2.52-2.5-5.73 3.72-5.81 9.1-9.84 14.65-13.66 2.07-1.43 4.39-0.09 6.58-0.01 6.54 0.22 6.93-0.11 5.4-6.32 -1.89-7.67-3.8-15.34-8.54-23.24 4.32 2.3 5.42 5.59 6.79 8.5 2.82 5.98 4.49 12.36 5.76 18.83 1.19 6.06 3.89 10.45 10.23 12.94 6.9 2.71 13.63 6.34 17.37 13.47 0.2 0.38 0.54 0.88 0.89 0.97 6.04 1.4 12.16 1.01 18.2 0.26 1.81-0.22 1.01-2.19 0.13-3.26 -1.79-2.16-4.21-3.3-6.93-3.82 -11.99-2.29-17.13-12.23-23.13-21.04 -1.49-2.19-0.46-5.25 0.06-7.91C207.14-77.67 209.7-88 209.45-98.74z"/></g><path fill="#FFFFFF" stroke="#1E1E1C" stroke-width="4" stroke-miterlimit="10" d="M33.67 142.13c0.09-10.43 0.15-18.41 0.15-19.15 0-2.24 288.07-2.33 288.08 0.43 0 0.89-0.05 8.61-0.13 18.73"/><path fill="#FFFFFF" stroke="#1E1E1C" stroke-width="4" stroke-miterlimit="10" d="M33.66 144.19"/><path fill="#FFFFFF" stroke="#1E1E1C" stroke-width="4" stroke-miterlimit="10" d="M33.66 144.19"/><path fill="#FFFFFF" stroke="#1E1E1C" stroke-width="4" stroke-miterlimit="10" d="M321.41 186.82c-0.04 5.55-0.07 9.3-0.07 9.85 0.01 2.47-134.04 32.17-144.63 32.15 -10.59-0.01-143.48-30.16-143.49-32.94 0-0.58 0.02-4 0.06-9.06"/><path fill="#FFFFFF" stroke="#1E1E1C" stroke-width="4" stroke-miterlimit="10" d="M321.41 186.82"/><path fill="#FFFFFF" stroke="#1E1E1C" stroke-width="4" stroke-miterlimit="10" d="M321.75 144.19"/><rect x="-13.23" y="148.32" fill="none" width="380.23" height="34.5"/><text transform="matrix(1 0 0 1 28.7305 181.2207)" fill="#1E1E1C" font-family="'Cassannet-Bold'" font-size="70">JobTrackr</text><rect x="26.95" y="200.16" fill="none" width="301.86" height="17.17"/><text transform="matrix(1 0 0 1 133.5493 210.0254)" fill="#1E1E1C" font-family="'Cassannet-Bold'" font-size="21">est. 02/16</text><path fill="#D9544F" d="M220.61 88.88c2.15 0.71 6.54-1.21 7.5-2.08 3.27-2.97 2.13-4.74 6.13-2.56 3.81 2.08 7.63 4.1 11.13 6.71 3.81 2.84 6.48 4.35 7.64-0.46 0.76-3.16-1.18-8.08 1.29-10.95 -0.38 2.32-0.71 4.66-1.16 6.97 -1.4 7.19-2.96 14.38-2.98 21.74 -0.02 8.15 5.41 12.17 13.47 10.41 2.47-0.54 2.03-2.08 1.86-3.73 -0.7-6.96 0.58-13.6 3.83-19.94 -0.54 4.73-1.1 9.47-1.61 14.21 -0.7 6.47 1.34 9.12 7.65 9.34 6.28 0.22 12.57 0.25 18.84 0.1 5.37-0.12 7.32-4.07 4.28-8.61 -1.99-2.97-4.3-5.75-6.62-8.48 -4.64-5.47-9.36-10.83-12.07-17.67 -1.65-4.16-4.9-6.84-8.93-9 -5.56-2.98-9.33-8.3-14.22-12.25 -12.14-9.79-24.34-19.36-39.6-24.08 -4.25-1.32-8.21-3.58-12.31-5.4 -6.15-2.73-12.39-3.14-18.76-0.75 -16.87 6.35-33.76 4.79-49.95-1.66 -9.88-3.93-19.32-4.13-29.37-2.38 -12.09 2.1-23.71 6.36-35.94 7.73 -18.12 2.03-33.95 1.41-51.79-2.66 -2.03-0.46-2.49-3.46-3.2-1.21 -0.81 2.58-1.99 2.98 0 3.85 14.3 6.32 29.41 10.04 44.8 9 8.05-0.55 20.13-2.33 28.05-3.97 2.67-0.56 1.57 0 0.85 3.15 -1.51 6.58-3.06 13.19-1.75 19.98 0.63 3.25-2.06 5.75-4.3 7.95 -7.01 6.85-15.24 12.04-23.48 17.2 -5.61 3.52-7.13 6.56-6.08 13.03 0.1 0.59 0.25 1.17 0.37 1.75 3.03 14.18 6.87 16.76 21.24 14.4 3.39-0.56 3.03-2.33 1.57-4.37 -1.79-2.5-4.82-2.81-7.45-3.82 -3.16-1.21-6.74-1.8-7.06-6.37 -0.34-4.81 1.73-7.93 5.81-10.18 5.19-2.86 10.85-4.18 16.51-5.59 13.44-3.36 26.37-7.87 37.41-16.66 1.77-1.41 3.29-3.01 4.72-4.76 2.31-2.83 4.79-5.52 8.04-7.46 -4.71 5.16-7.56 11.32-10.62 17.44 -3.02 6.06-8.32 10.12-14.17 13.33 -3.5 1.92-3.4 3.94-0.87 6.6 6.18 6.5 12.29 13.07 18.42 19.63 1.41 1.51 3.06 2.33 5.14 2.32 3.44-0.03 6.88 0.02 10.32-0.01 1.18-0.01 2.65 0.14 3.08-1.25 0.47-1.52-0.72-2.51-1.85-3.27 -2.15-1.43-4.63-2.3-7.12-2.61 -8.65-1.07-10.94-8.54-14.7-14.43 -1.27-1.99 0.75-2.41 2.32-2.59 2.96-0.35 5.97-0.48 8.89-1.08 9.59-1.98 14.43-8.94 17.74-17.38 0.97-2.48-0.83-3.28-2.63-3.7 -3.39-0.79-6.83-1.36-10.15-2.36 4.44-0.51 8.25 0.56 12.18 1.59 3.35 0.88 6.95 1.32 9.48 5.3 3.39 5.31 9.29 8.23 15.42 11.59 -1.15 0.08-1.58 0.23-1.93 0.12 -1.82-0.56-1.83-4.14-2.97-4.38 -3.99-0.82-5.93 3.87-7.74 10.5 -1.73 6.36-2.87 12.83-3.82 19.35 -0.46 3.17 0.36 4.82 3.92 4.69 4.78-0.18 14.54-0.47 19.32-0.52 1.16-0.01 2.6 0.09 2.95-1.41 0.32-1.35-0.73-2.21-1.68-2.94 -1.85-1.42-9.1-1.2-11.28-1.66 -3.5-0.75-4.55-2.52-2.5-5.73 3.72-5.81 9.1-9.84 14.65-13.66 2.07-1.43 5.25-3.49 7.44-3.41 6.54 0.22 6.06 3.29 4.53-2.92 -1.89-7.67-3.8-15.34-8.54-23.24 4.32 2.3 5.42 5.59 6.79 8.5 2.82 5.98 4.49 12.36 5.77 18.83 1.19 6.06 3.89 10.45 10.23 12.94 6.9 2.71 13.63 6.34 17.37 13.47 0.2 0.38 0.54 0.89 0.89 0.97 6.04 1.4 17.1 1.02 23.14 0.27 1.81-0.22 1.07-3.33 0.19-4.4 -1.79-2.16-9.21-2.18-11.93-2.7 -11.99-2.29-17.13-12.23-23.13-21.04 -1.49-2.19-0.46-5.25 0.06-7.91 2.03-10.38 4.59-20.71 4.34-31.45C224.66 63.29 222.01 76.5 220.61 88.88z"/><path fill-rule="evenodd" clip-rule="evenodd" fill="#1E1E1C" d="M226.87 49.58c2.76 12.45-0.64 24.63-2.03 36.94 2.15 0.71 2.77-1.08 3.74-1.95 3.27-2.97 6.67-3.62 10.66-1.44 3.81 2.08 7.63 4.1 11.13 6.71 3.81 2.84 4.1 2.7 5.25-2.11 0.76-3.16 1.21-6.43 3.68-9.29 -0.38 2.32-0.71 4.66-1.16 6.97 -1.4 7.19-2.96 14.38-2.98 21.74 -0.02 8.16 5.41 12.17 13.47 10.41 2.47-0.54 2.03-2.08 1.86-3.73 -0.7-6.96 0.58-13.6 3.83-19.94 -0.54 4.73-1.1 9.47-1.61 14.2 -0.7 6.47 1.34 9.12 7.65 9.34 6.28 0.22 12.57 0.25 18.84 0.1 5.37-0.12 7.32-4.07 4.28-8.61 -1.99-2.97-4.3-5.75-6.62-8.48 -4.64-5.47-9.36-10.83-12.07-17.67 -1.65-4.16-4.9-6.84-8.93-9 -5.56-2.98-9.33-8.3-14.22-12.25 -12.14-9.79-24.34-19.36-39.6-24.08 -4.25-1.32-8.21-3.58-12.31-5.4 -6.15-2.73-12.39-3.14-18.76-0.74 -16.87 6.35-33.76 4.79-49.95-1.66 -9.88-3.93-19.32-4.13-29.37-2.38 -12.09 2.1-23.71 6.36-35.94 7.73 -18.12 2.03-36.11 1.41-53.94-2.66 -2.03-0.46-5.34-2.33-6.05-0.08 -0.81 2.58 3.01 3.06 5 3.94 14.3 6.32 29.41 7.69 44.8 6.65 8.05-0.55 16.09-1.3 24.01-2.94 2.67-0.55 4.04 0.11 3.31 3.26 -1.51 6.58-2.53 13.19-1.22 19.98 0.63 3.25-1.02 5.75-3.26 7.95 -7.01 6.85-15.24 12.04-23.48 17.2 -5.61 3.52-7.13 6.57-6.08 13.03 0.1 0.59 0.25 1.17 0.37 1.76 3.03 14.18 6.87 16.75 21.24 14.4 3.39-0.56 3.03-2.33 1.57-4.37 -1.79-2.5-4.82-2.81-7.45-3.82 -3.16-1.21-6.74-1.8-7.06-6.37 -0.34-4.81 1.73-7.92 5.81-10.18 5.19-2.86 10.85-4.18 16.51-5.59 13.44-3.36 26.37-7.87 37.41-16.66 1.77-1.41 3.29-3.01 4.72-4.76 2.31-2.83 4.79-5.52 8.04-7.46 -4.71 5.16-7.56 11.32-10.62 17.44 -3.02 6.05-8.32 10.12-14.17 13.33 -3.5 1.92-3.4 3.94-0.87 6.6 6.18 6.5 12.29 13.07 18.42 19.63 1.41 1.51 3.06 2.33 5.14 2.32 3.44-0.03 6.88 0.02 10.32-0.01 1.18-0.01 2.65 0.14 3.08-1.25 0.47-1.52-0.72-2.51-1.85-3.27 -2.15-1.43-4.63-2.3-7.12-2.61 -8.65-1.07-10.94-8.53-14.7-14.43 -1.27-1.99 0.75-2.41 2.32-2.6 2.96-0.35 5.97-0.48 8.89-1.08 9.59-1.98 14.43-8.94 17.74-17.38 0.97-2.48-0.83-3.28-2.63-3.7 -3.39-0.79-6.83-1.36-10.15-2.36 8.23-0.95 16.15-1.76 21.67 6.89 3.39 5.31 9.29 8.23 15.42 11.59 -1.15 0.08-1.58 0.23-1.93 0.12 -8.18-2.5-8.39-2.41-10.71 6.12 -1.73 6.35-2.87 12.83-3.82 19.35 -0.46 3.17 0.36 4.82 3.92 4.69 4.78-0.18 9.57-0.03 14.36-0.08 1.16-0.01 2.6 0.09 2.95-1.42 0.32-1.35-0.73-2.21-1.68-2.94 -1.85-1.42-4.13-1.64-6.32-2.1 -3.5-0.75-4.55-2.52-2.5-5.73 3.72-5.81 9.1-9.84 14.65-13.66 2.07-1.43 4.39-0.09 6.58-0.01 6.54 0.22 6.93-0.11 5.4-6.32 -1.89-7.67-3.8-15.34-8.54-23.24 4.32 2.3 5.42 5.59 6.79 8.5 2.82 5.98 4.49 12.36 5.77 18.83 1.19 6.06 3.89 10.45 10.23 12.94 6.9 2.71 13.63 6.34 17.37 13.47 0.2 0.38 0.54 0.88 0.89 0.97 6.04 1.4 12.16 1.01 18.2 0.26 1.81-0.22 1.01-2.19 0.13-3.26 -1.79-2.16-4.21-3.3-6.93-3.82 -11.99-2.29-17.13-12.23-23.13-21.04 -1.49-2.19-0.46-5.25 0.06-7.91C224.57 70.65 227.13 60.33 226.87 49.58z"/></svg>